<svg width="67" height="60" viewBox="0 0 67 60" fill="none" xmlns="http://www.w3.org/2000/svg">
<path d="M7.132 33.3808C35.1311 34.2827 17.1975 -2.05383 39.5157 0.0914037C98.8323 5.79335 45.5219 56.0153 23.499 56C-3.48403 55.9796 -4.68528 33.0037 7.132 33.3808Z" fill="#FFD9D9"/>
<path fill-rule="evenodd" clip-rule="evenodd" d="M54.4983 23.8209L51.3949 20.317V15.2113C51.3949 12.3582 48.6418 9.60512 45.7887 9.60512H40.6329L37.129 6.50167C35.1268 4.49944 31.7731 4.49944 29.7709 6.50167L26.267 9.60512H21.2113C18.3582 9.60512 15.6051 12.3582 15.6051 15.2113V20.317L12.5017 23.8209C10.4994 25.8231 10.4994 29.1769 12.5017 31.1791L15.6051 34.683V39.7887C15.6051 42.6418 18.3582 45.3949 21.2113 45.3949H26.317L29.8209 48.4983C31.8231 50.5006 35.1769 50.5006 37.1791 48.4983L40.683 45.3949H45.7887C48.6418 45.3949 51.3949 42.6418 51.3949 39.7887V34.6329L54.4983 31.129C56.5006 29.1268 56.5006 25.8231 54.4983 23.8209Z" fill="white"/>
<mask id="mask0_416_8050" style="mask-type:alpha" maskUnits="userSpaceOnUse" x="11" y="5" width="45" height="45">
<path fill-rule="evenodd" clip-rule="evenodd" d="M54.4983 23.8209L51.3949 20.317V15.2113C51.3949 12.3582 48.6418 9.60512 45.7887 9.60512H40.6329L37.129 6.50167C35.1268 4.49944 31.7731 4.49944 29.7709 6.50167L26.267 9.60512H21.2113C18.3582 9.60512 15.6051 12.3582 15.6051 15.2113V20.317L12.5017 23.8209C10.4994 25.8231 10.4994 29.1769 12.5017 31.1791L15.6051 34.683V39.7887C15.6051 42.6418 18.3582 45.3949 21.2113 45.3949H26.317L29.8209 48.4983C31.8231 50.5006 35.1769 50.5006 37.1791 48.4983L40.683 45.3949H45.7887C48.6418 45.3949 51.3949 42.6418 51.3949 39.7887V34.6329L54.4983 31.129C56.5006 29.1268 56.5006 25.8231 54.4983 23.8209Z" fill="white"/>
</mask>
<g mask="url(#mask0_416_8050)">
<circle cx="30.5" cy="31.5" r="19.5" fill="#C1A1FF"/>
</g>
<path fill-rule="evenodd" clip-rule="evenodd" d="M54.4983 23.8209L51.3949 20.317V15.2113C51.3949 12.3582 48.6418 9.60512 45.7887 9.60512H40.6329L37.129 6.50167C35.1268 4.49944 31.7731 4.49944 29.7709 6.50167L26.267 9.60512H21.2113C18.3582 9.60512 15.6051 12.3582 15.6051 15.2113V20.317L12.5017 23.8209C10.4994 25.8231 10.4994 29.1769 12.5017 31.1791L15.6051 34.683V39.7887C15.6051 42.6418 18.3582 45.3949 21.2113 45.3949H26.317L29.8209 48.4983C31.8231 50.5006 35.1769 50.5006 37.1791 48.4983L40.683 45.3949H45.7887C48.6418 45.3949 51.3949 42.6418 51.3949 39.7887V34.6329L54.4983 31.129C56.5006 29.1268 56.5006 25.8231 54.4983 23.8209Z" stroke="#333333" stroke-width="2"/>
<path d="M25.4658 33.1148C24.9978 33.1148 24.6378 32.9888 24.3858 32.7368C24.1338 32.4848 24.0078 32.1248 24.0078 31.6568V21.8828C24.0078 21.4148 24.1338 21.0548 24.3858 20.8028C24.6378 20.5508 24.9978 20.4248 25.4658 20.4248H31.7478C32.1078 20.4248 32.3778 20.5208 32.5578 20.7128C32.7498 20.8928 32.8458 21.1568 32.8458 21.5048C32.8458 21.8648 32.7498 22.1408 32.5578 22.3328C32.3778 22.5128 32.1078 22.6028 31.7478 22.6028H26.6718V25.5728H31.3338C31.7058 25.5728 31.9818 25.6688 32.1618 25.8608C32.3538 26.0408 32.4498 26.3108 32.4498 26.6708C32.4498 27.0308 32.3538 27.3068 32.1618 27.4988C31.9818 27.6788 31.7058 27.7688 31.3338 27.7688H26.6718V30.9368H31.7478C32.1078 30.9368 32.3778 31.0328 32.5578 31.2248C32.7498 31.4048 32.8458 31.6688 32.8458 32.0168C32.8458 32.3768 32.7498 32.6528 32.5578 32.8448C32.3778 33.0248 32.1078 33.1148 31.7478 33.1148H25.4658Z" fill="#333333"/>
<path d="M36.0402 33.2768C35.5962 33.2768 35.2542 33.1568 35.0142 32.9168C34.7863 32.6768 34.6722 32.3348 34.6722 31.8908V25.5008C34.6722 25.0568 34.7863 24.7208 35.0142 24.4928C35.2542 24.2528 35.5842 24.1328 36.0042 24.1328C36.4362 24.1328 36.7663 24.2528 36.9943 24.4928C37.2222 24.7208 37.3363 25.0568 37.3363 25.5008V26.5268L37.1383 25.9328C37.4143 25.3448 37.8223 24.8948 38.3623 24.5828C38.9143 24.2588 39.5383 24.0968 40.2343 24.0968C40.9423 24.0968 41.5243 24.2348 41.9802 24.5108C42.4362 24.7748 42.7782 25.1828 43.0063 25.7348C43.2343 26.2748 43.3482 26.9648 43.3482 27.8048V31.8908C43.3482 32.3348 43.2283 32.6768 42.9883 32.9168C42.7603 33.1568 42.4242 33.2768 41.9802 33.2768C41.5483 33.2768 41.2122 33.1568 40.9722 32.9168C40.7442 32.6768 40.6303 32.3348 40.6303 31.8908V27.9308C40.6303 27.3188 40.5163 26.8808 40.2882 26.6168C40.0723 26.3408 39.7363 26.2028 39.2803 26.2028C38.7043 26.2028 38.2422 26.3828 37.8942 26.7428C37.5582 27.1028 37.3903 27.5828 37.3903 28.1828V31.8908C37.3903 32.8148 36.9402 33.2768 36.0402 33.2768Z" fill="#333333"/>
<ellipse cx="49.7111" cy="42.1165" rx="8.27598" ry="8.09207" transform="rotate(-4.7232 49.7111 42.1165)" fill="#68F9C5"/>
<path d="M54.8245 48.2597C51.4013 51.0602 46.9844 50.0787 45.3213 49.0449L45.9832 57.0559L50.5401 54.3071L55.4475 55.7995L54.8245 48.2597Z" fill="#FFDA49"/>
<path d="M50.3879 50.3132C54.8876 49.9414 58.234 45.9923 57.8622 41.4926C57.4904 36.9928 53.5413 33.6465 49.0415 34.0182C44.5418 34.39 41.1954 38.3392 41.5672 42.8389C41.939 47.3386 45.8881 50.685 50.3879 50.3132Z" stroke="#333333" stroke-width="2" stroke-linecap="round" stroke-linejoin="round"/>
<path d="M50.0057 45.6877C51.9514 45.5269 53.3984 43.8193 53.2377 41.8735C53.0769 39.9278 51.3692 38.4808 49.4235 38.6415C47.4777 38.8023 46.0307 40.51 46.1915 42.4557C46.3522 44.4015 48.0599 45.8485 50.0057 45.6877Z" fill="white" stroke="#333333" stroke-width="2" stroke-linecap="round" stroke-linejoin="round"/>
<path d="M55.1422 48.2791L55.7155 55.2175C55.7614 55.7733 55.2064 56.1831 54.6888 55.9756L50.7243 54.3868L47.0757 56.6044C46.5992 56.8941 45.9844 56.581 45.9385 56.0252L45.3653 49.0876" stroke="#333333" stroke-width="2" stroke-linecap="round" stroke-linejoin="round"/>
</svg>
