<svg width="67" height="58" viewBox="0 0 67 58" fill="none" xmlns="http://www.w3.org/2000/svg">
<path d="M7.132 33.3808C35.1311 34.2827 17.1975 -2.05383 39.5157 0.0914037C98.8323 5.79335 45.5219 56.0153 23.499 56C-3.48403 55.9796 -4.68528 33.0037 7.132 33.3808Z" fill="#FFD9D9"/>
<path d="M38.8504 42.1655L54.9603 40.1291C56.8622 39.886 58.5898 38.898 59.7638 37.382C60.9378 35.8661 61.4622 33.9462 61.2217 32.044L59.086 15.1487C58.8457 13.2474 57.8599 11.5195 56.3455 10.345C54.8311 9.17052 52.9122 8.64573 51.0109 8.88607L17.1098 13.1714C15.2189 13.424 13.5046 14.414 12.3408 15.9256C11.177 17.4371 10.6581 19.3476 10.8974 21.2402L13.0331 38.1354C13.1509 39.0778 13.4533 39.9878 13.9231 40.8133C14.3929 41.6387 15.0208 42.3635 15.7709 42.9461C16.521 43.5287 17.3786 43.9577 18.2946 44.2085C19.2107 44.4594 20.1672 44.5272 21.1095 44.4081L23.9086 44.0543C24.3103 44.0037 24.7184 44.0553 25.0949 44.2044C25.4714 44.3536 25.8041 44.5953 26.0623 44.9073L32.4287 52.6237C32.572 52.7946 32.7591 52.9232 32.97 52.9957C33.1808 53.0683 33.4075 53.082 33.6255 53.0356C33.8436 52.9891 34.0449 52.8841 34.2079 52.7318C34.3708 52.5796 34.4892 52.3858 34.5504 52.1714L36.879 43.8878C37.0062 43.441 37.2601 43.0406 37.6099 42.735C37.9598 42.4293 38.3906 42.2316 38.8504 42.1655Z" fill="white"/>
<path d="M36.8629 43.3908L51.1249 41.588C52.8087 41.3727 54.8912 41.3625 55.9319 40.0307C56.9725 38.699 56.8862 36.1546 56.6751 34.4851L54.8007 19.6569C54.5898 17.9882 53.7188 16.4724 52.3794 15.4429C51.0401 14.4134 49.342 13.9546 47.6588 14.1674L17.646 17.9612C15.972 18.1847 11.1301 19.0036 10.0985 20.3316C9.06689 21.6595 9.9468 19.1349 10.1568 20.796L14.0137 39.8778C12.5916 40.0576 14.3839 41.5034 14.7989 42.2275C15.214 42.9517 15.7691 43.5872 16.4325 44.0979C17.096 44.6086 17.8547 44.9843 18.6653 45.2037C19.4759 45.423 20.3226 45.4816 21.1568 45.3762L23.6348 45.0629C23.9905 45.0181 24.3516 45.0631 24.6848 45.1936C25.0179 45.3241 25.3122 45.536 25.5404 45.8096L31.1685 52.5769C31.2952 52.7267 31.4607 52.8394 31.6473 52.9029C31.8339 52.9664 32.0345 52.9782 32.2275 52.9372C32.4206 52.8962 32.5989 52.8038 32.7433 52.67C32.8877 52.5363 32.9927 52.3661 33.047 52.1778L35.1162 44.9044C35.2292 44.5121 35.4543 44.1604 35.7642 43.8918C36.0742 43.6232 36.4558 43.4492 36.8629 43.3908Z" fill="#A3C2FF"/>
<path d="M38.8504 42.1655L54.9603 40.1291C56.8622 39.886 58.5898 38.898 59.7638 37.382C60.9378 35.8661 61.4622 33.9462 61.2217 32.044L59.086 15.1487C58.8457 13.2474 57.8599 11.5195 56.3455 10.345C54.8311 9.17052 52.9122 8.64573 51.0109 8.88607L17.1098 13.1714C15.2189 13.424 13.5046 14.414 12.3408 15.9256C11.177 17.4371 10.6581 19.3476 10.8974 21.2402L13.0331 38.1354C13.1509 39.0778 13.4533 39.9878 13.9231 40.8133C14.3929 41.6387 15.0208 42.3635 15.7709 42.9461C16.521 43.5287 17.3786 43.9577 18.2946 44.2085C19.2107 44.4594 20.1672 44.5272 21.1095 44.4081L23.9086 44.0543C24.3103 44.0037 24.7184 44.0553 25.0949 44.2044C25.4714 44.3536 25.8041 44.5953 26.0623 44.9073L32.4287 52.6237C32.572 52.7946 32.7591 52.9232 32.97 52.9957C33.1808 53.0683 33.4075 53.082 33.6255 53.0356C33.8436 52.9891 34.0449 52.8841 34.2079 52.7318C34.3708 52.5796 34.4892 52.3858 34.5504 52.1714L36.879 43.8878C37.0062 43.441 37.2601 43.0406 37.6099 42.735C37.9598 42.4293 38.3906 42.2316 38.8504 42.1655V42.1655Z" stroke="#333333" stroke-width="2" stroke-miterlimit="10" stroke-linecap="round"/>
<path d="M37.9127 33.8433C37.949 34.2243 37.8384 34.6062 37.6017 34.9165C37.3809 35.1747 37.065 35.3409 36.7211 35.3798C36.4406 35.4123 36.1571 35.368 35.9032 35.2522C35.6133 35.1222 35.3713 34.9115 35.2082 34.6471C35.0175 33.852 34.7695 33.0711 34.4661 32.3101C34.1551 31.5233 33.8016 30.7529 33.407 30.0022C32.212 30.1532 31.0283 30.3028 29.8333 30.4539C28.6383 30.605 27.4321 30.7574 26.2146 30.9113L26.1582 30.9185C26.0285 31.7048 25.9074 32.4681 25.8006 33.1635C25.6938 33.859 25.6007 34.6627 25.5216 35.4866C25.4594 35.8366 25.2939 36.163 25.0448 36.4268C24.8412 36.6332 24.5717 36.768 24.28 36.8095C24.0833 36.8342 23.8838 36.818 23.695 36.7622C23.5061 36.7064 23.3324 36.6122 23.1854 36.4859C23.0176 36.345 22.8907 36.1645 22.817 35.962C22.7433 35.7594 22.7251 35.5415 22.7643 35.3292C23.0493 32.689 23.4822 30.064 24.061 27.4659C24.6296 24.8252 25.4202 22.2312 26.425 19.7096C26.4825 19.5029 26.5961 19.3141 26.7541 19.1627C26.9121 19.0112 27.1088 18.9026 27.324 18.848C27.5436 18.7333 27.7922 18.6816 28.0402 18.699C28.2882 18.7164 28.525 18.8023 28.7223 18.9462C29.2608 19.3397 29.7673 19.7721 30.2373 20.2396C30.7115 20.7296 31.152 21.2239 31.5754 21.7643C31.9987 22.3048 32.3968 22.8264 32.7751 23.3725L33.7689 25.0728C33.9818 25.3979 34.21 25.754 34.4564 26.1628C34.7028 26.5716 34.9366 26.971 35.1577 27.3611L36.5217 27.1886C36.8727 27.2317 37.2015 27.3738 37.4668 27.5971C37.6701 27.7691 37.8016 28.0062 37.8375 28.2652C37.865 28.5373 37.785 28.8104 37.6136 29.0305C37.3891 29.3179 37.0737 29.5278 36.7156 29.6279L36.3774 29.6707C37.0173 31.0138 37.5311 32.4101 37.9127 33.8433ZM30.0471 24.4433L29.2089 23.3394C28.9215 22.9687 28.6396 22.6414 28.3731 22.3451C28.0285 23.3346 27.7305 24.3292 27.4676 25.3304C27.2048 26.3315 26.9361 27.3774 26.718 28.4609L29.4913 28.1103C30.3706 27.9992 31.295 27.8823 32.2645 27.7598C31.9734 27.2686 31.6723 26.7897 31.3654 26.3555C31.0586 25.9214 30.7462 25.4439 30.4424 24.9433L30.0471 24.4433Z" fill="#333333"/>
<path d="M50.684 31.9101C50.813 32.1406 50.8684 32.4082 50.8418 32.6725C50.8143 32.913 50.7176 33.1376 50.5647 33.316C50.3875 33.4958 50.1651 33.618 49.9233 33.6687C49.6245 33.7236 49.316 33.6913 49.0309 33.5751C48.8809 33.4419 48.7323 33.3195 48.5811 33.1756C48.4462 33.0529 48.3199 32.9199 48.2031 32.7779C47.7503 33.2703 47.2078 33.6603 46.6074 33.9249C46.0558 34.1331 45.483 34.2747 44.8996 34.3472C44.4491 34.4037 43.9935 34.4103 43.5403 34.3669C43.0578 34.3073 42.588 34.157 42.1531 33.923C41.4998 33.5716 40.9497 33.0352 40.5648 32.3744C40.2057 31.7337 39.9763 31.0224 39.8913 30.2864C39.7934 29.5609 39.8076 28.8251 39.9333 28.108C40.0564 27.4105 40.271 26.7361 40.5708 26.1042C40.8718 25.4836 41.2379 24.9016 41.6621 24.369C42.0816 23.8277 42.5505 23.3318 43.062 22.8882C43.2093 22.7741 43.3639 22.6711 43.5248 22.5798C43.7222 22.4679 43.9533 22.3518 44.218 22.2314C44.4833 22.1186 44.755 22.0225 45.0315 21.9438C45.3025 21.8631 45.5789 21.8028 45.8585 21.7632C46.3351 21.6995 46.8188 21.7078 47.2952 21.7881C47.5178 21.8393 47.7269 21.9445 47.9059 22.0954C48.0849 22.2462 48.2289 22.4386 48.3266 22.6573L48.4969 24.0049C48.5429 24.3685 48.5807 24.6679 48.6118 24.9139C48.6429 25.1599 48.6686 25.3631 48.6889 25.5235L48.7457 25.9727C48.8254 26.6037 48.9079 27.256 48.9931 27.9298C49.0782 28.6036 49.2528 29.2552 49.4259 29.8961C49.5036 30.1335 49.6148 30.3576 49.7557 30.5606C49.9 30.7997 50.0622 31.0263 50.2407 31.2382L50.5951 31.6932C50.6792 31.7912 50.7102 31.8742 50.684 31.9101ZM47.0053 30.4302C46.7873 29.804 46.6202 29.1599 46.5059 28.505C46.4208 27.8312 46.337 27.1681 46.2531 26.5051C46.1937 26.0345 46.1396 25.6067 46.0923 25.2324C46.0449 24.8581 45.9976 24.4838 45.9571 24.1629C45.6612 24.2388 45.3765 24.3551 45.11 24.509L44.5203 24.8661C44.0867 25.1409 43.7083 25.5023 43.4057 25.9306C43.096 26.3706 42.847 26.8557 42.6662 27.3714C42.4962 27.8818 42.388 28.4139 42.3442 28.955C42.3136 29.479 42.3802 30.0058 42.5402 30.5057C42.6218 30.8634 42.802 31.1887 43.0577 31.4399C43.2937 31.6701 43.5743 31.8424 43.8792 31.9445C44.1893 32.0393 44.5131 32.0686 44.8321 32.0305C45.1751 31.9947 45.509 31.8974 45.8196 31.7427C46.2435 31.3354 46.6397 30.8968 47.0053 30.4302Z" fill="#333333"/>
<path d="M44.5791 45.9854L47.7783 47.0642" stroke="#565DFF" stroke-width="2" stroke-linecap="round" stroke-linejoin="round"/>
<path d="M41.7607 50.4775L43.531 53.3541" stroke="#565DFF" stroke-width="2" stroke-linecap="round" stroke-linejoin="round"/>
</svg>
